<svg xmlns="http://www.w3.org/2000/svg" xmlns:xlink="http://www.w3.org/1999/xlink" version="1.1" width="256" height="256" viewBox="0 0 256 256" xml:space="preserve">
<g style="stroke: none; stroke-width: 0; stroke-dasharray: none; stroke-linecap: butt; stroke-linejoin: miter; stroke-miterlimit: 10; fill: none; fill-rule: nonzero; opacity: 1;" transform="translate(1.4065934065934016 1.4065934065934016) scale(2.81 2.81)">
	<path d="M 69.408 90 H 20.592 C 9.237 90 0 80.763 0 69.408 V 20.592 C 0 9.237 9.237 0 20.592 0 h 48.816 C 80.763 0 90 9.237 90 20.592 v 48.816 C 90 80.763 80.763 90 69.408 90 z M 20.592 6 C 12.546 6 6 12.546 6 20.592 v 48.816 C 6 77.454 12.546 84 20.592 84 h 48.816 C 77.454 84 84 77.454 84 69.408 V 20.592 C 84 12.546 77.454 6 69.408 6 H 20.592 z" style="stroke: none; stroke-width: 1; stroke-dasharray: none; stroke-linecap: butt; stroke-linejoin: miter; stroke-miterlimit: 10; fill: rgb(0,0,0); fill-rule: nonzero; opacity: 1;" transform=" matrix(1 0 0 1 0 0) " stroke-linecap="round"/>
	<path d="M 16.012 30.533 c 0.439 -3.856 3.612 -6.822 7.488 -7.001 h 32.987 c 2.395 0.197 4.574 1.459 5.938 3.438 c 0.607 0.89 1.035 1.89 1.26 2.943 l 9.694 -4.807 c 0.213 -0.106 0.472 -0.02 0.578 0.192 c 0.022 0.043 0.036 0.09 0.042 0.138 c 0 1.816 0 3.623 0 5.451 c 0.008 0.373 -0.215 0.712 -0.56 0.853 c -8.918 4.423 -17.838 8.851 -26.759 13.285 L 73.38 58.235 c 0.349 0.121 0.592 0.437 0.62 0.805 c 0 1.82 0 3.623 0 5.459 c 0.002 0.247 -0.197 0.448 -0.444 0.45 c -0.097 0.001 -0.191 -0.03 -0.269 -0.088 c -3.18 -1.61 -6.405 -3.128 -9.561 -4.771 c -0.212 0.763 -0.495 1.504 -0.845 2.214 c -1.081 1.99 -2.95 3.432 -5.149 3.973 c -0.728 0.153 -1.471 0.214 -2.214 0.181 H 24.772 c -0.692 0 -1.389 0 -2.077 -0.052 c -3.571 -0.535 -6.323 -3.425 -6.683 -7.017 c 0 -1.759 0 -3.523 0 -5.282 c 0.06 -0.45 0.373 -0.824 0.805 -0.962 c 5.483 -2.709 10.954 -5.443 16.445 -8.14 c -5.531 -2.754 -11.067 -5.499 -16.606 -8.237 c -0.385 -0.17 -0.634 -0.55 -0.636 -0.97 C 16.012 34.048 15.984 32.288 16.012 30.533 z M 22.123 30.569 c -0.33 0.664 -0.177 1.433 -0.205 2.15 c 6.039 2.983 12.033 5.982 18.06 8.945 c 5.955 -2.952 11.914 -5.904 17.875 -8.857 c 0 -0.535 0.024 -1.071 0 -1.61 c -0.145 -0.997 -1.005 -1.734 -2.013 -1.723 H 23.963 c -0.776 -0.026 -1.495 0.402 -1.844 1.095 H 22.123 z M 21.918 57.284 c 0.028 0.725 -0.129 1.506 0.221 2.178 c 0.359 0.674 1.068 1.088 1.832 1.067 h 31.896 c 0.72 0.006 1.386 -0.377 1.743 -1.002 c 0.403 -0.705 0.217 -1.55 0.258 -2.323 c -5.97 -2.947 -11.932 -5.942 -17.915 -8.857 c -6.031 2.979 -12.044 5.958 -18.04 8.937 H 21.918 z" style="stroke: none; stroke-width: 1; stroke-dasharray: none; stroke-linecap: butt; stroke-linejoin: miter; stroke-miterlimit: 10; fill: rgb(0,0,0); fill-rule: nonzero; opacity: 1;" transform=" matrix(1 0 0 1 0 0) " stroke-linecap="round"/>
</g>
</svg>